<svg width="21" height="16" viewBox="0 0 21 16" fill="none" xmlns="http://www.w3.org/2000/svg">
<g clip-path="url(#clip0_429_260)">
<mask id="mask0_429_260" style="mask-type:luminance" maskUnits="userSpaceOnUse" x="0" y="0" width="21" height="16">
<path d="M0 0H21V16H0V0Z" fill="white"/>
</mask>
<g mask="url(#mask0_429_260)">
<path fill-rule="evenodd" clip-rule="evenodd" d="M-1.3125 0H22.3125V16H-1.3125V0Z" fill="white"/>
<path d="M10.5017 12.9743C13.2056 12.9743 15.3975 10.7476 15.3975 8.0008C15.3975 5.25404 13.2056 3.02734 10.5017 3.02734C7.79786 3.02734 5.60596 5.25404 5.60596 8.0008C5.60596 10.7476 7.79786 12.9743 10.5017 12.9743Z" fill="#D30000"/>
</g>
<g clip-path="url(#clip1_429_260)">
<path d="M10.0002 17.0001C14.9708 17.0001 19.0002 12.9707 19.0002 8.00012C19.0002 3.02956 14.9708 -0.999878 10.0002 -0.999878C5.02968 -0.999878 1.00024 3.02956 1.00024 8.00012C1.00024 12.9707 5.02968 17.0001 10.0002 17.0001Z" fill="#F0F0F0"/>
<path d="M6.08716 11.1304L6.86977 16.4402C7.84472 16.802 8.89931 17 10.0002 17C13.8698 17 17.1688 14.5576 18.4404 11.1304H6.08716Z" fill="black"/>
<path d="M6.08716 4.86958L6.86977 -0.440277C7.84472 -0.80207 8.89931 -1 10.0002 -1C13.8698 -1 17.1688 1.44237 18.4404 4.86958H6.08716Z" fill="#6DA544"/>
<path d="M1 8.00002C1 11.8697 3.44241 15.1686 6.86958 16.4402V-0.440186C3.44241 0.831452 1 4.13034 1 8.00002Z" fill="#A2001D"/>
</g>
<rect width="7" height="17" fill="#A2001D"/>
<rect x="7" y="11" width="14" height="7" fill="black"/>
<rect x="7" y="-2" width="14" height="7" fill="#6DA544"/>
<rect x="7" y="5" width="14" height="6" fill="#F0F0F0"/>
</g>
<defs>
<clipPath id="clip0_429_260">
<rect width="21" height="16" rx="4" fill="white"/>
</clipPath>
<clipPath id="clip1_429_260">
<rect width="18" height="18" fill="white" transform="translate(1 -1)"/>
</clipPath>
</defs>
</svg>
