<svg width="21" height="16" viewBox="0 0 21 16" fill="none" xmlns="http://www.w3.org/2000/svg">
<g clip-path="url(#clip0_429_261)">
<mask id="mask0_429_261" style="mask-type:luminance" maskUnits="userSpaceOnUse" x="0" y="0" width="21" height="16">
<path d="M0 0H21V16H0V0Z" fill="white"/>
</mask>
<g mask="url(#mask0_429_261)">
<path fill-rule="evenodd" clip-rule="evenodd" d="M-1.3125 0H22.3125V16H-1.3125V0Z" fill="#6DA544"/>
<path d="M10.5017 12.9743C13.2056 12.9743 15.3975 10.7476 15.3975 8.0008C15.3975 5.25404 13.2056 3.02734 10.5017 3.02734C7.79786 3.02734 5.60596 5.25404 5.60596 8.0008C5.60596 10.7476 7.79786 12.9743 10.5017 12.9743Z" fill="#D30000"/>
</g>
<g clip-path="url(#clip1_429_261)">
<path d="M10.9998 17C15.9703 17 19.9998 12.9706 19.9998 8C19.9998 3.02944 15.9703 -1 10.9998 -1C6.02919 -1 1.99976 3.02944 1.99976 8C1.99976 12.9706 6.02919 17 10.9998 17Z" fill="#6DA544"/>
<path d="M11 2.52173L18.4347 7.99999L11 13.4782L3.56519 7.99999L11 2.52173Z" fill="#FFDA44"/>
<path d="M11 11.1305C12.7289 11.1305 14.1305 9.72893 14.1305 8.00005C14.1305 6.27116 12.7289 4.86963 11 4.86963C9.27116 4.86963 7.86963 6.27116 7.86963 8.00005C7.86963 9.72893 9.27116 11.1305 11 11.1305Z" fill="#F0F0F0"/>
<path d="M9.43481 7.80444C8.89045 7.80444 8.36511 7.88724 7.87061 8.04087C7.89251 9.75087 9.28484 11.1305 11 11.1305C12.0606 11.1305 12.9973 10.6026 13.5636 9.79573C12.5948 8.58294 11.1041 7.80444 9.43481 7.80444Z" fill="#0052B4"/>
<path d="M14.0724 8.59981C14.11 8.40561 14.1304 8.20525 14.1304 8.00005C14.1304 6.27113 12.7289 4.86963 11 4.86963C9.70996 4.86963 8.60254 5.65013 8.12329 6.76452C8.54692 6.67673 8.98553 6.6305 9.43479 6.6305C11.253 6.63046 12.8978 7.38625 14.0724 8.59981Z" fill="#0052B4"/>
</g>
</g>
<defs>
<clipPath id="clip0_429_261">
<rect width="21" height="16" rx="4" fill="white"/>
</clipPath>
<clipPath id="clip1_429_261">
<rect width="18" height="18" fill="white" transform="translate(2 -1)"/>
</clipPath>
</defs>
</svg>
