<svg width="16" height="17" viewBox="0 0 16 17" fill="none" xmlns="http://www.w3.org/2000/svg">
<path fill-rule="evenodd" clip-rule="evenodd" d="M7.99998 15.0979C11.5346 15.0979 14.4 12.2325 14.4 8.69791C14.4 5.16329 11.5346 2.29791 7.99998 2.29791C4.46535 2.29791 1.59998 5.16329 1.59998 8.69791C1.59998 12.2325 4.46535 15.0979 7.99998 15.0979ZM10.9657 7.6636C11.2781 7.35118 11.2781 6.84465 10.9657 6.53223C10.6532 6.21981 10.1467 6.21981 9.83429 6.53223L7.19998 9.16654L6.16566 8.13223C5.85324 7.81981 5.34671 7.81981 5.03429 8.13223C4.72187 8.44465 4.72187 8.95118 5.03429 9.2636L6.63429 10.8636C6.94671 11.176 7.45324 11.176 7.76566 10.8636L10.9657 7.6636Z" fill="#0ECD8D"/>
</svg>
