<svg width="21" height="20" viewBox="0 0 21 20" fill="none" xmlns="http://www.w3.org/2000/svg">
<path d="M14.9536 2.5C15.1725 2.28113 15.4323 2.10752 15.7183 1.98906C16.0043 1.87061 16.3108 1.80965 16.6203 1.80965C16.9298 1.80965 17.2363 1.87061 17.5223 1.98906C17.8082 2.10752 18.0681 2.28113 18.2869 2.5C18.5058 2.71887 18.6794 2.97871 18.7979 3.26468C18.9163 3.55064 18.9773 3.85714 18.9773 4.16667C18.9773 4.4762 18.9163 4.7827 18.7979 5.06866C18.6794 5.35463 18.5058 5.61447 18.2869 5.83334L7.03695 17.0833L2.45361 18.3333L3.70361 13.75L14.9536 2.5Z" stroke="#A6A8B1" stroke-width="1.66667" stroke-linecap="round" stroke-linejoin="round"/>
</svg>
