<svg width="21" height="20" viewBox="0 0 21 20" fill="none" xmlns="http://www.w3.org/2000/svg">
<path d="M3.28711 5.00001H4.95378M4.95378 5.00001H18.2871M4.95378 5.00001V16.6667C4.95378 17.1087 5.12937 17.5326 5.44193 17.8452C5.75449 18.1577 6.17842 18.3333 6.62044 18.3333H14.9538C15.3958 18.3333 15.8197 18.1577 16.1323 17.8452C16.4448 17.5326 16.6204 17.1087 16.6204 16.6667V5.00001H4.95378ZM7.45378 5.00001V3.33334C7.45378 2.89131 7.62937 2.46739 7.94193 2.15483C8.25449 1.84227 8.67842 1.66667 9.12044 1.66667H12.4538C12.8958 1.66667 13.3197 1.84227 13.6323 2.15483C13.9448 2.46739 14.1204 2.89131 14.1204 3.33334V5.00001M9.12044 9.16667V14.1667M12.4538 9.16667V14.1667" stroke="#A6A8B1" stroke-width="1.66667" stroke-linecap="round" stroke-linejoin="round"/>
</svg>
