<svg width="16" height="16" viewBox="0 0 16 16" fill="none" xmlns="http://www.w3.org/2000/svg">
<path d="M2 11.8784C2 11.5151 2.0933 11.1579 2.27096 10.841L5.977 4.23022C6.30887 3.63823 6.88339 3.22131 7.54911 3.08937V3.08937C7.84681 3.03036 8.15319 3.03036 8.45089 3.08937V3.08937C9.11661 3.22131 9.69113 3.63823 10.023 4.23021L13.729 10.841C13.9067 11.1579 14 11.5151 14 11.8784V11.8784C14 13.0501 13.0501 14 11.8784 14H4.12156C2.94986 14 2 13.0501 2 11.8784V11.8784Z" stroke="white"/>
<path d="M8 6.00001L8 8.66667" stroke="white" stroke-linecap="round" stroke-linejoin="round"/>
<path d="M8 10.6667L8 11" stroke="white" stroke-linecap="round" stroke-linejoin="round"/>
</svg>
